<?xml version="1.0" encoding="UTF-8"?>
<svg id="Layer_1" data-name="Layer 1" xmlns="http://www.w3.org/2000/svg" viewBox="0 0 1921 1081">
  <rect x=".5" y="1032.38" width="1920" height="48.12" style="fill: #231f20; stroke: #231f20; stroke-miterlimit: 10;"/>
  <rect x="1881.04" y=".5" width="39.46" height="967.24" style="fill: #636466; stroke: #231f20; stroke-miterlimit: 10;"/>
  <rect x="1712.96" y="106.41" width="39.86" height="792.21" style="fill: #636466; stroke: #231f20; stroke-miterlimit: 10;"/>
  <rect x="619.12" y="196.02" width="775.32" height="53.25" style="fill: #231f20; stroke: #231f20; stroke-miterlimit: 10;"/>
  <rect x="317.82" y="420.04" width="293.51" height="48.05" style="fill: #231f20; stroke: #231f20; stroke-miterlimit: 10;"/>
  <rect x="673.9" y="516.44" width="234.83" height="49.71" style="fill: #231f20; stroke: #231f20; stroke-miterlimit: 10;"/>
  <rect x="868.47" y="111.83" width="276.62" height="84.19" style="fill: #231f20; stroke: #231f20; stroke-miterlimit: 10;"/>
  <rect x="908.73" y="516.44" width="33.21" height="417.32" style="fill: #636466; stroke: #231f20; stroke-miterlimit: 10;"/>
  <rect x="1044.42" y="516.44" width="40.45" height="417.32" style="fill: #636466; stroke: #231f20; stroke-miterlimit: 10;"/>
  <rect x="603.54" y="196.02" width="15.58" height="53.25" style="fill: #636466; stroke: #231f20; stroke-miterlimit: 10;"/>
  <rect x="1394.44" y="196.02" width="12.21" height="53.25" style="fill: #636466; stroke: #231f20; stroke-miterlimit: 10;"/>
  <rect x="610.93" y="420.04" width="11.26" height="48.05" style="fill: #636466; stroke: #231f20; stroke-miterlimit: 10;"/>
  <rect x="1495.83" y="196.02" width="217.13" height="53.25" style="fill: #231f20; stroke: #231f20; stroke-miterlimit: 10;"/>
  <rect x=".5" y=".5" width="31.6" height="1031.88" style="fill: #636466; stroke: #231f20; stroke-miterlimit: 10;"/>
  <rect x="317.82" y="284.62" width="137.85" height="24.02" style="fill: #231f20; stroke: #231f20; stroke-miterlimit: 10;"/>
  <rect x="455.48" y="284.62" width="9.94" height="24.02" style="fill: #636466; stroke: #231f20; stroke-miterlimit: 10;"/>
  <rect x="317.82" y="383.47" width="13.61" height="36.57" style="fill: #231f20; stroke: #231f20; stroke-miterlimit: 10;"/>
  <rect x="539.24" y="284.62" width="82.95" height="24.02" style="fill: #231f20; stroke: #231f20; stroke-miterlimit: 10;"/>
  <rect x="1174.8" y="474.6" width="324.74" height="30.53" style="fill: #231f20; stroke: #231f20; stroke-miterlimit: 10;"/>
  <rect x="1485.93" y="401.22" width="13.61" height="85.71" style="fill: #231f20; stroke: #231f20; stroke-miterlimit: 10;"/>
</svg>