<?xml version="1.0" encoding="UTF-8"?>
<svg id="Layer_1" data-name="Layer 1" xmlns="http://www.w3.org/2000/svg" viewBox="0 0 1921 1081">
  <rect x=".5" y="1032.38" width="926.42" height="48.12" style="fill: #231f20; stroke: #231f20; stroke-miterlimit: 10;"/>
  <rect x="1065.88" y="1032.38" width="854.62" height="48.12" style="fill: #231f20; stroke: #231f20; stroke-miterlimit: 10;"/>
  <rect x="578.97" y="597.45" width="225.64" height="10.89" style="fill: #231f20; stroke: #231f20; stroke-miterlimit: 10;"/>
  <rect x="1337.15" y="948.62" width="118.18" height="37.66" style="fill: #231f20; stroke: #231f20; stroke-miterlimit: 10;"/>
  <rect x=".5" y=".5" width="1920" height="56.56" style="fill: #fff; stroke: #231f20; stroke-miterlimit: 10;"/>
  <rect x=".5" y="563.56" width="119.8" height="33.89" style="fill: #231f20; stroke: #231f20; stroke-miterlimit: 10;"/>
  <rect x="120.3" y="563.56" width="27.41" height="468.82" style="fill: #636466; stroke: #231f20; stroke-miterlimit: 10;"/>
  <rect x="1880.56" y=".5" width="39.94" height="1031.88" style="fill: #231f20; stroke: #231f20; stroke-miterlimit: 10;"/>
  <rect x="814.1" y="558.11" width="225.64" height="10.89" style="fill: #231f20; stroke: #231f20; stroke-miterlimit: 10;"/>
  <rect x="1039.74" y="523.02" width="215.64" height="10.89" style="fill: #231f20; stroke: #231f20; stroke-miterlimit: 10;"/>
  <rect x="1237.97" y="523.02" width="27.41" height="468.82" style="fill: #636466; stroke: #231f20; stroke-miterlimit: 10;"/>
  <rect x="1237.97" y="528.47" width="17.41" height="468.82" style="fill: #231f20; stroke: #231f20; stroke-miterlimit: 10;"/>
  <rect x="657.72" y="471.69" width="51.78" height="120.36" style="fill: #00aeef; stroke: #231f20; stroke-miterlimit: 10;"/>
  <rect x="898.8" y="248.08" width="41.53" height="44.66" style="fill: #00aeef; stroke: #231f20; stroke-miterlimit: 10;"/>
  <rect x="844.33" y="506.79" width="158.02" height="50.16" style="fill: #00aeef; stroke: #231f20; stroke-miterlimit: 10;"/>
  <rect x="945.18" y="385.93" width="38.83" height="110.02" style="fill: #00aeef; stroke: #231f20; stroke-miterlimit: 10;"/>
  <rect x="849.45" y="361.18" width="147.78" height="20.49" style="fill: #00aeef; stroke: #231f20; stroke-miterlimit: 10;"/>
  <rect x="865.09" y="333.73" width="116.49" height="23.19" style="fill: #00aeef; stroke: #231f20; stroke-miterlimit: 10;"/>
  <rect x="862.66" y="385.93" width="38.83" height="110.02" style="fill: #00aeef; stroke: #231f20; stroke-miterlimit: 10;"/>
  <rect x="802.12" y="302.99" width="234.88" height="20.49" style="fill: #00aeef; stroke: #231f20; stroke-miterlimit: 10;"/>
  <rect x="1118.84" y="89.42" width="51.78" height="427.15" style="fill: #00aeef; stroke: #231f20; stroke-miterlimit: 10;"/>
</svg>